# Blender 3.3.0
# www.blender.org
mtllib untitled.mtl
o Cube
v 1.000000 1.000000 -1.000000
v 1.000000 -1.000000 -1.000000
v 1.000000 1.000000 1.000000
v 1.000000 -1.000000 1.000000
v -1.000000 1.000000 -1.000000
v -1.000000 -1.000000 -1.000000
v -1.000000 1.000000 1.000000
v -1.000000 -1.000000 1.000000
v 0.000000 2.200346 -0.122966
v -0.023989 2.200346 -0.120603
v -0.047057 2.200346 -0.113606
v -0.068316 2.200346 -0.102242
v -0.086950 2.200346 -0.086950
v -0.102243 2.200346 -0.068316
v -0.113606 2.200346 -0.047057
v -0.120603 2.200346 -0.023989
v -0.122966 2.200346 0.000000
v -0.120603 2.200346 0.023989
v -0.113606 2.200346 0.047057
v -0.102243 2.200346 0.068316
v -0.086950 2.200346 0.086950
v -0.068316 2.200346 0.102243
v -0.047057 2.200346 0.113606
v -0.023989 2.200346 0.120603
v 0.000000 2.200346 0.122966
v 0.023989 2.200346 0.120603
v 0.047057 2.200346 0.113606
v 0.068316 2.200346 0.102243
v 0.086950 2.200346 0.086950
v 0.102243 2.200346 0.068316
v 0.113606 2.200346 0.047057
v 0.120603 2.200346 0.023989
v 0.122966 2.200346 0.000000
v 0.120603 2.200346 -0.023989
v 0.113606 2.200346 -0.047057
v 0.102243 2.200346 -0.068316
v 0.086950 2.200346 -0.086950
v 0.068316 2.200346 -0.102242
v 0.047057 2.200346 -0.113606
v 0.023989 2.200346 -0.120603
v 0.023989 0.964591 -0.120603
v 0.047057 0.964591 -0.113606
v 0.068316 0.964591 -0.102242
v 0.086950 0.964591 -0.086950
v 0.102243 0.964591 -0.068316
v 0.113606 0.964591 -0.047057
v 0.120603 0.964591 -0.023989
v 0.122966 0.964591 0.000000
v 0.120603 0.964591 0.023989
v 0.113606 0.964591 0.047057
v 0.102243 0.964591 0.068316
v 0.086950 0.964591 0.086950
v 0.068316 0.964591 0.102243
v 0.047057 0.964591 0.113606
v 0.023989 0.964591 0.120603
v 0.000000 0.964591 0.122966
v -0.023989 0.964591 0.120603
v -0.047057 0.964591 0.113606
v -0.068316 0.964591 0.102243
v -0.086950 0.964591 0.086950
v -0.102243 0.964591 0.068316
v -0.113606 0.964591 0.047057
v -0.120603 0.964591 0.023989
v -0.122966 0.964591 0.000000
v -0.120603 0.964591 -0.023989
v -0.113606 0.964591 -0.047057
v -0.102243 0.964591 -0.068316
v -0.086950 0.964591 -0.086950
v -0.068316 0.964591 -0.102242
v -0.047057 0.964591 -0.113606
v -0.023989 0.964591 -0.120603
v 0.000000 0.964591 -0.122966
v 0.000000 2.200346 -0.309991
v -0.060476 2.200346 -0.304035
v -0.118628 2.200346 -0.286394
v -0.172222 2.200346 -0.257748
v -0.219197 2.200346 -0.219197
v -0.257748 2.200346 -0.172222
v -0.286394 2.200346 -0.118628
v -0.304035 2.200346 -0.060476
v -0.309991 2.200346 0.000000
v -0.304035 2.200346 0.060476
v -0.286394 2.200346 0.118628
v -0.257748 2.200346 0.172222
v -0.219197 2.200346 0.219197
v -0.172222 2.200346 0.257748
v -0.118628 2.200346 0.286394
v -0.060476 2.200346 0.304035
v 0.000000 2.200346 0.309991
v 0.060476 2.200346 0.304035
v 0.118628 2.200346 0.286394
v 0.172222 2.200346 0.257748
v 0.219197 2.200346 0.219197
v 0.257748 2.200346 0.172222
v 0.286394 2.200346 0.118628
v 0.304035 2.200346 0.060476
v 0.309991 2.200346 0.000000
v 0.304035 2.200346 -0.060476
v 0.286394 2.200346 -0.118628
v 0.257748 2.200346 -0.172222
v 0.219197 2.200346 -0.219197
v 0.172222 2.200346 -0.257748
v 0.118628 2.200346 -0.286394
v 0.060476 2.200346 -0.304035
v 2.192065 -0.037415 -0.113606
v 2.192065 -0.058674 -0.102243
v 2.192065 -0.077308 -0.086950
v 2.192065 -0.092600 -0.068316
v 2.192065 -0.103963 -0.047057
v 2.192065 -0.110961 -0.023990
v 2.192065 -0.113323 -0.000000
v 2.192065 -0.110961 0.023989
v 2.192065 -0.103963 0.047057
v 2.192065 -0.092600 0.068316
v 2.192065 -0.077308 0.086950
v 2.192065 -0.058674 0.102242
v 2.192065 -0.037415 0.113606
v 2.192065 -0.014347 0.120603
v 2.192065 0.009643 0.122966
v 2.192065 0.033632 0.120603
v 2.192065 0.056700 0.113606
v 0.000000 3.099800 0.000000
v 2.192065 0.077959 0.102242
v 2.192065 0.096593 0.086950
v 2.192065 0.111885 0.068316
v 2.192065 0.123248 0.047057
v 2.192065 0.130246 0.023989
v 2.192065 0.132609 -0.000000
v 2.192065 0.130246 -0.023990
v 2.192065 0.123248 -0.047057
v 2.192065 0.111885 -0.068316
v 2.192065 0.096593 -0.086950
v 2.192065 0.077959 -0.102243
v 2.192065 0.056700 -0.113606
v 2.192065 0.033632 -0.120603
v 2.192065 0.009643 -0.122966
v 2.192065 -0.014347 -0.120603
v 0.956310 -0.014347 -0.120603
v 0.956310 -0.037414 -0.113606
v 0.956310 -0.058674 -0.102243
v 0.956310 -0.077307 -0.086950
v 0.956310 -0.092600 -0.068316
v 0.956310 -0.103963 -0.047057
v 0.956310 -0.110961 -0.023990
v 0.956310 -0.113323 -0.000000
v 0.956310 -0.110961 0.023989
v 0.956310 -0.103963 0.047057
v 0.956310 -0.092600 0.068316
v 0.956310 -0.077307 0.086950
v 0.956310 -0.058674 0.102242
v 0.956310 -0.037414 0.113606
v 0.956310 -0.014347 0.120603
v 0.956310 0.009643 0.122966
v 0.956310 0.033632 0.120603
v 0.956310 0.056700 0.113606
v 0.956310 0.077959 0.102242
v 0.956310 0.096593 0.086950
v 0.956310 0.111885 0.068316
v 0.956310 0.123248 0.047057
v 0.956310 0.130246 0.023989
v 0.956310 0.132609 -0.000000
v 0.956310 0.130246 -0.023990
v 0.956310 0.123248 -0.047057
v 0.956310 0.111885 -0.068316
v 0.956310 0.096593 -0.086950
v 0.956310 0.077959 -0.102243
v 0.956310 0.056700 -0.113606
v 0.956310 0.033632 -0.120603
v 0.956310 0.009643 -0.122966
v 2.192064 0.009643 -0.309991
v 2.192064 0.070119 -0.304035
v 2.192065 0.128271 -0.286395
v 2.192064 0.181864 -0.257748
v 2.192064 0.228839 -0.219197
v 2.192065 0.267391 -0.172222
v 2.192065 0.296037 -0.118629
v 2.192064 0.313677 -0.060476
v 2.192064 0.319634 -0.000000
v 2.192064 0.313677 0.060476
v 2.192065 0.296037 0.118628
v 2.192065 0.267391 0.172222
v 2.192064 0.228839 0.219197
v 2.192064 0.181864 0.257748
v 2.192065 0.128271 0.286394
v 2.192064 0.070119 0.304034
v 2.192064 0.009643 0.309991
v 2.192064 -0.050834 0.304034
v 2.192064 -0.108986 0.286394
v 2.192064 -0.162579 0.257748
v 2.192064 -0.209554 0.219197
v 2.192064 -0.248106 0.172222
v 2.192064 -0.276752 0.118628
v 2.192064 -0.294392 0.060476
v 2.192064 -0.300349 -0.000000
v 2.192064 -0.294392 -0.060476
v 2.192064 -0.276752 -0.118629
v 2.192064 -0.248106 -0.172222
v 2.192064 -0.209554 -0.219197
v 2.192064 -0.162579 -0.257748
v 2.192064 -0.108986 -0.286395
v 2.192064 -0.050834 -0.304035
v 3.091519 0.009643 -0.000000
v -0.117691 -0.037415 -2.163489
v -0.106328 -0.058674 -2.163489
v -0.091035 -0.077308 -2.163489
v -0.072401 -0.092600 -2.163489
v -0.051142 -0.103963 -2.163489
v -0.028075 -0.110961 -2.163489
v -0.004085 -0.113323 -2.163489
v 0.019904 -0.110961 -2.163489
v 0.042972 -0.103963 -2.163489
v 0.064231 -0.092600 -2.163489
v 0.082865 -0.077308 -2.163489
v 0.098157 -0.058674 -2.163489
v 0.109521 -0.037415 -2.163489
v 0.116518 -0.014347 -2.163489
v 0.118881 0.009643 -2.163489
v 0.116518 0.033632 -2.163489
v 0.109521 0.056700 -2.163489
v 0.098157 0.077959 -2.163489
v 0.082865 0.096593 -2.163489
v 0.064231 0.111885 -2.163489
v 0.042972 0.123248 -2.163489
v 0.019904 0.130246 -2.163489
v -0.004085 0.132609 -2.163489
v -0.028075 0.130246 -2.163489
v -0.051142 0.123248 -2.163489
v -0.072401 0.111885 -2.163489
v -0.091035 0.096593 -2.163489
v -0.106328 0.077959 -2.163489
v -0.117691 0.056700 -2.163489
v -0.124688 0.033632 -2.163489
v -0.127051 0.009643 -2.163489
v -0.124688 -0.014347 -2.163489
v -0.124688 -0.014347 -0.927734
v -0.117691 -0.037414 -0.927734
v -0.106328 -0.058674 -0.927734
v -0.091035 -0.077307 -0.927734
v -0.072401 -0.092600 -0.927734
v -0.051142 -0.103963 -0.927734
v -0.028075 -0.110961 -0.927734
v -0.004085 -0.113323 -0.927734
v 0.019904 -0.110961 -0.927734
v 0.042972 -0.103963 -0.927734
v 0.064231 -0.092600 -0.927734
v 0.082865 -0.077307 -0.927734
v 0.098158 -0.058674 -0.927734
v 0.109521 -0.037414 -0.927734
v 0.116518 -0.014347 -0.927734
v 0.118881 0.009643 -0.927734
v 0.116518 0.033632 -0.927734
v 0.109521 0.056700 -0.927734
v 0.098158 0.077959 -0.927734
v 0.082865 0.096593 -0.927734
v 0.064231 0.111885 -0.927734
v 0.042972 0.123248 -0.927734
v 0.019904 0.130246 -0.927734
v -0.004085 0.132609 -0.927734
v -0.028075 0.130246 -0.927734
v -0.051142 0.123248 -0.927734
v -0.072401 0.111885 -0.927734
v -0.091035 0.096593 -0.927734
v -0.106328 0.077959 -0.927734
v -0.117691 0.056700 -0.927734
v -0.124688 0.033632 -0.927734
v -0.127051 0.009643 -0.927734
v -0.314076 0.009643 -2.163488
v -0.308120 0.070119 -2.163488
v -0.290480 0.128271 -2.163488
v -0.261833 0.181864 -2.163488
v -0.223282 0.228839 -2.163488
v -0.176307 0.267391 -2.163488
v -0.122714 0.296037 -2.163488
v -0.064561 0.313677 -2.163488
v -0.004085 0.319634 -2.163488
v 0.056391 0.313677 -2.163488
v 0.114543 0.296037 -2.163488
v 0.168137 0.267391 -2.163488
v 0.215112 0.228839 -2.163488
v 0.253663 0.181864 -2.163488
v 0.282309 0.128271 -2.163488
v 0.299950 0.070119 -2.163488
v 0.305906 0.009643 -2.163488
v 0.299950 -0.050834 -2.163488
v 0.282309 -0.108986 -2.163488
v 0.253663 -0.162579 -2.163488
v 0.215112 -0.209554 -2.163488
v 0.168137 -0.248106 -2.163488
v 0.114543 -0.276752 -2.163488
v 0.056391 -0.294392 -2.163488
v -0.004085 -0.300348 -2.163488
v -0.064561 -0.294392 -2.163488
v -0.122714 -0.276752 -2.163488
v -0.176307 -0.248106 -2.163488
v -0.223282 -0.209554 -2.163488
v -0.261833 -0.162579 -2.163488
v -0.290480 -0.108986 -2.163488
v -0.308120 -0.050834 -2.163488
v -0.004085 0.009643 -3.062943
v -0.427547 4.312859 -0.540636
v 0.484688 4.312859 -0.540636
v -0.188628 4.312859 0.380907
v 0.484688 4.312859 0.380907
v 0.484688 4.312859 0.517432
v -0.469435 4.312859 0.517432
v 0.203881 4.312859 -0.404111
v -0.427547 4.312859 -0.404111
v -0.427547 3.940518 -0.540636
v 0.484688 3.940518 -0.540636
v -0.188628 3.940518 0.380907
v 0.484688 3.940518 0.380907
v 0.484688 3.940518 0.517432
v -0.469435 3.940518 0.517432
v 0.203881 3.940518 -0.404111
v -0.427547 3.940518 -0.404111
v -0.427547 3.940518 -0.540636
v -0.427547 4.312859 -0.540636
v 0.484688 3.940518 -0.540636
v 0.484688 4.312859 -0.540636
v -0.188628 3.940518 0.380907
v -0.188628 4.312859 0.380907
v 0.484688 3.940518 0.380907
v 0.484688 4.312859 0.380907
v 0.484688 3.940518 0.517432
v 0.484688 4.312859 0.517432
v -0.469435 3.940518 0.517432
v -0.469435 4.312859 0.517432
v 0.203881 3.940518 -0.404111
v 0.203881 4.312859 -0.404111
v -0.427547 3.940518 -0.404111
v -0.427547 4.312859 -0.404111
v 0.465279 0.500099 -4.361489
v 0.072770 0.000542 -4.361489
v 0.072770 -0.557969 -4.361489
v -0.079269 -0.557969 -4.361489
v -0.079269 0.002093 -4.361489
v -0.471778 0.500099 -4.361489
v -0.288711 0.500099 -4.361489
v -0.004801 0.135516 -4.361489
v 0.282212 0.500099 -4.361489
v 0.465279 0.500099 -4.733830
v 0.072770 0.000542 -4.733830
v 0.072770 -0.557969 -4.733830
v -0.079269 -0.557969 -4.733830
v -0.079269 0.002093 -4.733830
v -0.471778 0.500099 -4.733830
v -0.288711 0.500099 -4.733830
v -0.004801 0.135516 -4.733830
v 0.282212 0.500099 -4.733830
v 0.465279 0.500099 -4.733830
v 0.465279 0.500099 -4.361489
v 0.072770 0.000542 -4.733830
v 0.072770 0.000542 -4.361489
v 0.072770 -0.557969 -4.733830
v 0.072770 -0.557969 -4.361489
v -0.079269 -0.557969 -4.733830
v -0.079269 -0.557969 -4.361489
v -0.079269 0.002093 -4.733830
v -0.079269 0.002093 -4.361489
v -0.471778 0.500099 -4.733830
v -0.471778 0.500099 -4.361489
v -0.288711 0.500099 -4.733830
v -0.288711 0.500099 -4.361489
v -0.004801 0.135516 -4.733830
v -0.004801 0.135516 -4.361489
v 0.282212 0.500099 -4.733830
v 0.282212 0.500099 -4.361489
v 4.516407 -0.504667 -0.550732
v 4.516407 -0.504667 -0.367664
v 4.516407 -0.067167 -0.007735
v 4.516407 -0.504667 0.356849
v 4.516407 -0.504667 0.541468
v 4.516407 0.042984 0.085350
v 4.516407 0.553401 0.508888
v 4.516407 0.553401 0.324269
v 4.516407 0.150032 -0.007735
v 4.516407 0.553401 -0.338187
v 4.516407 0.553401 -0.521255
v 4.516407 0.042984 -0.099269
v 4.144066 -0.504667 -0.550732
v 4.144066 -0.504667 -0.367664
v 4.144067 -0.067167 -0.007735
v 4.144066 -0.504667 0.356849
v 4.144067 -0.504667 0.541468
v 4.144067 0.042984 0.085350
v 4.144067 0.553401 0.508888
v 4.144067 0.553401 0.324269
v 4.144067 0.150032 -0.007735
v 4.144067 0.553401 -0.338187
v 4.144067 0.553401 -0.521255
v 4.144067 0.042984 -0.099269
v 4.144066 -0.504667 -0.550732
v 4.516407 -0.504667 -0.550732
v 4.144066 -0.504667 -0.367664
v 4.516407 -0.504667 -0.367664
v 4.144067 -0.067167 -0.007735
v 4.516407 -0.067167 -0.007735
v 4.144066 -0.504667 0.356849
v 4.516407 -0.504667 0.356849
v 4.144067 -0.504667 0.541468
v 4.516407 -0.504667 0.541468
v 4.144067 0.042984 0.085350
v 4.516407 0.042984 0.085350
v 4.144067 0.553401 0.508888
v 4.516407 0.553401 0.508888
v 4.144067 0.553401 0.324269
v 4.516407 0.553401 0.324269
v 4.144067 0.150032 -0.007735
v 4.516407 0.150032 -0.007735
v 4.144067 0.553401 -0.338187
v 4.516407 0.553401 -0.338187
v 4.144067 0.553401 -0.521255
v 4.516407 0.553401 -0.521255
v 4.144067 0.042984 -0.099269
v 4.516407 0.042984 -0.099269
vn -0.0000 1.0000 -0.0000
vn -0.0000 -0.0000 1.0000
vn -1.0000 -0.0000 -0.0000
vn -0.0000 -1.0000 -0.0000
vn 1.0000 -0.0000 -0.0000
vn -0.0000 -0.0000 -1.0000
vn -0.9952 -0.0000 -0.0980
vn 0.0980 -0.0000 -0.9952
vn -0.0980 -0.0000 -0.9952
vn 0.9952 -0.0000 -0.0980
vn -0.9952 -0.0000 0.0980
vn 0.0980 -0.0000 0.9952
vn -0.9569 -0.0000 0.2903
vn 0.2903 -0.0000 0.9569
vn -0.2903 -0.0000 -0.9569
vn 0.9569 -0.0000 -0.2903
vn 0.8819 -0.0000 -0.4714
vn -0.8819 -0.0000 0.4714
vn 0.4714 -0.0000 0.8819
vn -0.4714 -0.0000 -0.8819
vn -0.6344 -0.0000 -0.7730
vn 0.7730 -0.0000 -0.6344
vn -0.7730 -0.0000 0.6344
vn 0.6344 -0.0000 0.7730
vn -0.6344 -0.0000 0.7730
vn 0.7730 -0.0000 0.6344
vn -0.7730 -0.0000 -0.6344
vn 0.6344 -0.0000 -0.7730
vn 0.4714 -0.0000 -0.8819
vn -0.4714 -0.0000 0.8819
vn 0.8819 -0.0000 0.4714
vn -0.8819 -0.0000 -0.4714
vn -0.9569 -0.0000 -0.2903
vn 0.2903 -0.0000 -0.9569
vn -0.2903 -0.0000 0.9569
vn 0.9952 -0.0000 0.0980
vn 0.9569 -0.0000 0.2903
vn -0.0980 -0.0000 0.9952
vn 0.6001 -0.3244 0.7312
vn -0.2746 -0.3244 0.9052
vn -0.2746 -0.3244 -0.9052
vn 0.7312 -0.3244 0.6001
vn -0.0927 -0.3244 0.9414
vn -0.4459 -0.3244 -0.8342
vn 0.8342 -0.3244 0.4459
vn -0.6001 -0.3244 -0.7312
vn 0.9052 -0.3244 0.2746
vn -0.7312 -0.3244 -0.6001
vn 0.9414 -0.3244 0.0927
vn -0.8342 -0.3244 -0.4459
vn 0.9414 -0.3244 -0.0927
vn -0.9052 -0.3244 -0.2746
vn 0.9052 -0.3244 -0.2746
vn -0.9414 -0.3244 -0.0927
vn 0.8342 -0.3244 -0.4459
vn -0.9414 -0.3244 0.0927
vn 0.7312 -0.3244 -0.6001
vn -0.9052 -0.3244 0.2746
vn 0.6001 -0.3244 -0.7312
vn -0.8342 -0.3244 0.4459
vn 0.4459 -0.3244 -0.8342
vn 0.0927 -0.3244 0.9414
vn -0.7312 -0.3244 0.6001
vn 0.2746 -0.3244 -0.9052
vn 0.2746 -0.3244 0.9052
vn -0.6001 -0.3244 0.7312
vn 0.0927 -0.3244 -0.9414
vn 0.4459 -0.3244 0.8342
vn -0.4459 -0.3244 0.8342
vn -0.0927 -0.3244 -0.9414
vn -0.0000 0.9952 -0.0980
vn -0.0000 -0.0980 -0.9952
vn -0.0000 0.0980 -0.9952
vn -0.0000 -0.9952 -0.0980
vn -0.0000 0.9952 0.0980
vn -0.0000 -0.0980 0.9952
vn -0.0000 0.9569 0.2903
vn -0.0000 -0.2903 0.9569
vn -0.0000 0.2903 -0.9569
vn -0.0000 -0.9569 -0.2903
vn -0.0000 -0.8819 -0.4714
vn -0.0000 0.8819 0.4714
vn -0.0000 -0.4714 0.8819
vn -0.0000 0.4714 -0.8819
vn -0.0000 0.6344 -0.7730
vn -0.0000 -0.7730 -0.6344
vn -0.0000 0.7730 0.6344
vn -0.0000 -0.6344 0.7730
vn -0.0000 0.6344 0.7730
vn -0.0000 -0.7730 0.6344
vn -0.0000 0.7730 -0.6344
vn -0.0000 -0.6344 -0.7730
vn -0.0000 -0.4714 -0.8819
vn -0.0000 0.4714 0.8819
vn -0.0000 -0.8819 0.4714
vn -0.0000 0.8819 -0.4714
vn -0.0000 0.9569 -0.2903
vn -0.0000 -0.2903 -0.9569
vn -0.0000 0.2903 0.9569
vn -0.0000 -0.9952 0.0980
vn -0.0000 -0.9569 0.2903
vn -0.0000 0.0980 0.9952
vn -0.3244 -0.6001 0.7312
vn -0.3244 0.2746 0.9052
vn -0.3244 0.2746 -0.9052
vn -0.3244 -0.7312 0.6001
vn -0.3244 0.0927 0.9414
vn -0.3244 0.4459 -0.8342
vn -0.3244 -0.8342 0.4459
vn -0.3244 0.6001 -0.7312
vn -0.3244 -0.9052 0.2746
vn -0.3244 0.7312 -0.6001
vn -0.3244 -0.9414 0.0927
vn -0.3244 0.8342 -0.4459
vn -0.3244 -0.9414 -0.0927
vn -0.3244 0.9052 -0.2746
vn -0.3244 -0.9052 -0.2746
vn -0.3244 0.9414 -0.0927
vn -0.3244 -0.8342 -0.4459
vn -0.3244 0.9414 0.0927
vn -0.3244 -0.7312 -0.6001
vn -0.3244 0.9052 0.2746
vn -0.3244 -0.6001 -0.7312
vn -0.3244 0.8342 0.4459
vn -0.3244 -0.4459 -0.8342
vn -0.3244 -0.0927 0.9414
vn -0.3244 0.7312 0.6001
vn -0.3244 -0.2746 -0.9052
vn -0.3244 -0.2746 0.9052
vn -0.3244 0.6001 0.7312
vn -0.3244 -0.0927 -0.9414
vn -0.3244 -0.4459 0.8342
vn -0.3244 0.4459 0.8342
vn -0.3244 0.0927 -0.9414
vn -0.0980 0.9952 -0.0000
vn -0.9952 -0.0980 -0.0000
vn -0.9952 0.0980 -0.0000
vn -0.0980 -0.9952 -0.0000
vn 0.0980 0.9952 -0.0000
vn 0.9952 -0.0980 -0.0000
vn 0.2903 0.9569 -0.0000
vn 0.9569 -0.2903 -0.0000
vn -0.9569 0.2903 -0.0000
vn -0.2903 -0.9569 -0.0000
vn -0.4714 -0.8819 -0.0000
vn 0.4714 0.8819 -0.0000
vn 0.8819 -0.4714 -0.0000
vn -0.8819 0.4714 -0.0000
vn -0.7730 0.6344 -0.0000
vn -0.6344 -0.7730 -0.0000
vn 0.6344 0.7730 -0.0000
vn 0.7730 -0.6344 -0.0000
vn 0.7730 0.6344 -0.0000
vn 0.6344 -0.7730 -0.0000
vn -0.6344 0.7730 -0.0000
vn -0.7730 -0.6344 -0.0000
vn -0.8819 -0.4714 -0.0000
vn 0.8819 0.4714 -0.0000
vn 0.4714 -0.8819 -0.0000
vn -0.4714 0.8819 -0.0000
vn -0.2903 0.9569 -0.0000
vn -0.9569 -0.2903 -0.0000
vn 0.9569 0.2903 -0.0000
vn 0.0980 -0.9952 -0.0000
vn 0.2903 -0.9569 -0.0000
vn 0.9952 0.0980 -0.0000
vn 0.7312 -0.6001 0.3244
vn 0.9052 0.2746 0.3244
vn -0.9052 0.2746 0.3244
vn 0.6001 -0.7312 0.3244
vn 0.9414 0.0927 0.3244
vn -0.8342 0.4459 0.3244
vn 0.4459 -0.8342 0.3244
vn -0.7312 0.6001 0.3244
vn 0.2746 -0.9052 0.3244
vn -0.6001 0.7312 0.3244
vn 0.0927 -0.9414 0.3244
vn -0.4459 0.8342 0.3244
vn -0.0927 -0.9414 0.3244
vn -0.2746 0.9052 0.3244
vn -0.2746 -0.9052 0.3244
vn -0.0927 0.9414 0.3244
vn -0.4459 -0.8342 0.3244
vn 0.0927 0.9414 0.3244
vn -0.6001 -0.7312 0.3244
vn 0.2746 0.9052 0.3244
vn -0.7312 -0.6001 0.3244
vn 0.4459 0.8342 0.3244
vn -0.8342 -0.4459 0.3244
vn 0.9414 -0.0927 0.3244
vn 0.6001 0.7312 0.3244
vn -0.9052 -0.2746 0.3244
vn 0.9052 -0.2746 0.3244
vn 0.7312 0.6001 0.3244
vn -0.9414 -0.0927 0.3244
vn 0.8342 -0.4459 0.3244
vn 0.8342 0.4459 0.3244
vn -0.9414 0.0927 0.3244
vn 0.8916 -0.0000 -0.4528
vn -0.7071 -0.0000 -0.7071
vn 0.7071 -0.0000 -0.7071
vn 0.7071 -0.0000 0.7071
vn -0.8916 -0.0000 0.4528
vn -0.7071 -0.0000 0.7071
vn 0.9451 -0.3269 -0.0000
vn 0.8994 0.4371 -0.0000
vn 0.7071 -0.7071 -0.0000
vn -0.7071 -0.7071 -0.0000
vn -0.9448 -0.3276 -0.0000
vn -0.8997 0.4365 -0.0000
vn 0.4391 0.8984 -0.0000
vn 0.0026 1.0000 -0.0000
vn -0.4367 0.8996 -0.0000
vn -0.0000 -0.9042 0.4270
vn -0.0000 -0.4266 -0.9045
vn -0.0000 -1.0000 0.0032
vn -0.0000 -0.9056 -0.4242
vn -0.0000 -0.4243 0.9055
vn -0.0000 0.0009 1.0000
vn -0.0000 0.4251 0.9051
vn -0.0000 0.9043 -0.4269
vn -0.0000 1.0000 0.0011
vn -0.0000 0.9038 0.4279
vn -0.0000 0.4259 -0.9048
vn -0.0000 -0.0007 -1.0000
vt 0.625000 0.500000
vt 0.375000 0.500000
vt 0.625000 0.750000
vt 0.375000 0.750000
vt 0.875000 0.500000
vt 0.625000 0.250000
vt 0.125000 0.500000
vt 0.375000 0.250000
vt 0.875000 0.750000
vt 0.625000 1.000000
vt 0.625000 0.000000
vt 0.375000 0.000000
vt 0.375000 1.000000
vt 0.125000 0.750000
vt 0.000000 0.000000
vt 0.000000 0.000000
vt 0.000000 0.000000
vt 0.000000 0.000000
vt 0.000000 0.000000
vt 0.000000 0.000000
vt 0.000000 0.000000
vt 0.000000 0.000000
vt 0.000000 0.000000
vt 0.000000 0.000000
vt 0.000000 0.000000
vt 0.000000 0.000000
vt 0.000000 0.000000
vt 0.000000 0.000000
vt 0.000000 0.000000
vt 0.000000 0.000000
vt 0.000000 0.000000
vt 0.000000 0.000000
vt 0.000000 0.000000
vt 0.000000 0.000000
vt 0.000000 0.000000
vt 0.000000 0.000000
vt 0.000000 0.000000
vt 0.000000 0.000000
vt 0.000000 0.000000
vt 0.000000 0.000000
vt 0.000000 0.000000
vt 0.000000 0.000000
vt 0.000000 0.000000
vt 0.000000 0.000000
vt 0.000000 0.000000
vt 0.000000 0.000000
vt 0.000000 0.000000
vt 0.000000 0.000000
vt 0.000000 0.000000
vt 0.000000 0.000000
vt 0.000000 0.000000
vt 0.000000 0.000000
vt 0.000000 0.000000
vt 0.000000 0.000000
vt 0.000000 0.000000
vt 0.000000 0.000000
vt 0.000000 0.000000
vt 0.000000 0.000000
vt 0.000000 0.000000
vt 0.000000 0.000000
vt 0.000000 0.000000
vt 0.000000 0.000000
vt 0.000000 0.000000
vt 0.000000 0.000000
vt 0.000000 0.000000
vt 0.000000 0.000000
vt 0.000000 0.000000
vt 0.000000 0.000000
vt 0.000000 0.000000
vt 0.000000 0.000000
vt 0.000000 0.000000
vt 0.000000 0.000000
vt 0.000000 0.000000
vt 0.000000 0.000000
vt 0.000000 0.000000
vt 0.000000 0.000000
vt 0.000000 0.000000
vt 0.000000 0.000000
vt 0.000000 0.000000
vt 0.000000 0.000000
vt 0.000000 0.000000
vt 0.000000 0.000000
vt 0.000000 0.000000
vt 0.000000 0.000000
vt 0.000000 0.000000
vt 0.000000 0.000000
vt 0.000000 0.000000
vt 0.000000 0.000000
vt 0.000000 0.000000
vt 0.000000 0.000000
vt 0.000000 0.000000
vt 0.000000 0.000000
vt 0.000000 0.000000
vt 0.000000 0.000000
vt 0.000000 0.000000
vt 0.000000 0.000000
vt 0.000000 0.000000
vt 0.000000 0.000000
vt 0.000000 0.000000
vt 0.000000 0.000000
vt 0.000000 0.000000
vt 0.000000 0.000000
vt 0.000000 0.000000
vt 0.000000 0.000000
vt 0.000000 0.000000
vt 0.000000 0.000000
vt 0.000000 0.000000
vt 0.000000 0.000000
vt 0.000000 0.000000
vt 0.000000 0.000000
vt 0.000000 0.000000
vt 0.000000 0.000000
vt 0.000000 0.000000
vt 0.000000 0.000000
vt 0.000000 0.000000
vt 0.000000 0.000000
vt 0.000000 0.000000
vt 0.000000 0.000000
vt 0.000000 0.000000
vt 0.000000 0.000000
vt 0.000000 0.000000
vt 0.000000 0.000000
vt 0.000000 0.000000
vt 0.000000 0.000000
vt 0.000000 0.000000
vt 0.000000 0.000000
vt 0.000000 0.000000
vt 0.000000 0.000000
vt 0.000000 0.000000
vt 0.000000 0.000000
vt 0.000000 0.000000
vt 0.000000 0.000000
vt 0.000000 0.000000
vt 0.000000 0.000000
vt 0.000000 0.000000
vt 0.000000 0.000000
vt 0.000000 0.000000
vt 0.000000 0.000000
vt 0.000000 0.000000
vt 0.000000 0.000000
vt 0.000000 0.000000
vt 0.000000 0.000000
vt 0.000000 0.000000
vt 0.000000 0.000000
vt 0.000000 0.000000
vt 0.000000 0.000000
vt 0.000000 0.000000
vt 0.000000 0.000000
vt 0.000000 0.000000
vt 0.000000 0.000000
vt 0.000000 0.000000
vt 0.000000 0.000000
vt 0.000000 0.000000
vt 0.000000 0.000000
vt 0.000000 0.000000
vt 0.000000 0.000000
vt 0.000000 0.000000
vt 0.000000 0.000000
vt 0.000000 0.000000
vt 0.000000 0.000000
vt 0.000000 0.000000
vt 0.000000 0.000000
vt 0.000000 0.000000
vt 0.000000 0.000000
vt 0.000000 0.000000
vt 0.000000 0.000000
vt 0.000000 0.000000
vt 0.000000 0.000000
vt 0.000000 0.000000
vt 0.000000 0.000000
vt 0.000000 0.000000
vt 0.000000 0.000000
vt 0.000000 0.000000
vt 0.000000 0.000000
vt 0.000000 0.000000
vt 0.000000 0.000000
vt 0.000000 0.000000
vt 0.000000 0.000000
vt 0.000000 0.000000
vt 0.000000 0.000000
vt 0.000000 0.000000
vt 0.000000 0.000000
vt 0.000000 0.000000
vt 0.000000 0.000000
vt 0.000000 0.000000
vt 0.000000 0.000000
vt 0.000000 0.000000
vt 0.000000 0.000000
vt 0.000000 0.000000
vt 0.000000 0.000000
vt 0.000000 0.000000
vt 0.000000 0.000000
vt 0.000000 0.000000
vt 0.000000 0.000000
vt 0.000000 0.000000
vt 0.000000 0.000000
vt 0.000000 0.000000
vt 0.000000 0.000000
vt 0.000000 0.000000
vt 0.000000 0.000000
vt 0.000000 0.000000
vt 0.000000 0.000000
vt 0.000000 0.000000
vt 0.000000 0.000000
vt 0.000000 0.000000
vt 0.000000 0.000000
vt 0.000000 0.000000
vt 0.000000 0.000000
vt 0.000000 0.000000
vt 0.000000 0.000000
vt 0.000000 0.000000
vt 0.000000 0.000000
vt 0.000000 0.000000
vt 0.000000 0.000000
vt 0.000000 0.000000
vt 0.000000 0.000000
vt 0.000000 0.000000
vt 0.000000 0.000000
vt 0.000000 0.000000
vt 0.000000 0.000000
vt 0.000000 0.000000
vt 0.000000 0.000000
vt 0.000000 0.000000
vt 0.000000 0.000000
vt 0.000000 0.000000
vt 0.000000 0.000000
vt 0.000000 0.000000
vt 0.000000 0.000000
vt 0.000000 0.000000
vt 0.000000 0.000000
vt 0.000000 0.000000
vt 0.000000 0.000000
vt 0.000000 0.000000
vt 0.000000 0.000000
vt 0.000000 0.000000
vt 0.000000 0.000000
vt 0.000000 0.000000
vt 0.000000 0.000000
vt 0.000000 0.000000
vt 0.000000 0.000000
vt 0.000000 0.000000
vt 0.000000 0.000000
vt 0.000000 0.000000
vt 0.000000 0.000000
vt 0.000000 0.000000
vt 0.000000 0.000000
vt 0.000000 0.000000
vt 0.000000 0.000000
vt 0.000000 0.000000
vt 0.000000 0.000000
vt 0.000000 0.000000
vt 0.000000 0.000000
vt 0.000000 0.000000
vt 0.000000 0.000000
vt 0.000000 0.000000
vt 0.000000 0.000000
vt 0.000000 0.000000
vt 0.000000 0.000000
vt 0.000000 0.000000
vt 0.000000 0.000000
vt 0.000000 0.000000
vt 0.000000 0.000000
vt 0.000000 0.000000
vt 0.000000 0.000000
vt 0.000000 0.000000
vt 0.000000 0.000000
vt 0.000000 0.000000
vt 0.000000 0.000000
vt 0.000000 0.000000
vt 0.000000 0.000000
vt 0.000000 0.000000
vt 0.000000 0.000000
vt 0.000000 0.000000
vt 0.000000 0.000000
vt 0.000000 0.000000
vt 0.000000 0.000000
vt 0.000000 0.000000
vt 0.000000 0.000000
vt 0.000000 0.000000
vt 0.000000 0.000000
vt 0.000000 0.000000
vt 0.000000 0.000000
vt 0.000000 0.000000
vt 0.000000 0.000000
vt 0.000000 0.000000
vt 0.000000 0.000000
vt 0.000000 0.000000
vt 0.000000 0.000000
vt 0.000000 0.000000
vt 0.000000 0.000000
vt 0.000000 0.000000
vt 0.000000 0.000000
vt 0.000000 0.000000
vt 0.000000 0.000000
vt 0.000000 0.000000
vt 0.000000 0.000000
vt 0.000000 0.000000
vt 0.000000 0.000000
vt 0.000000 0.000000
vt 0.000000 0.000000
vt 0.000000 0.000000
vt 0.000000 0.000000
vt 0.000000 0.000000
vt 0.000000 0.000000
vt 0.000000 0.000000
vt 0.000000 0.000000
vt 0.142857 0.000000
vt 0.285714 0.000000
vt 0.428571 0.000000
vt 0.571429 0.000000
vt 0.714286 0.000000
vt 0.857143 0.000000
vt 1.000000 0.000000
vt 0.000000 0.000000
vt 0.142857 0.000000
vt 0.285714 0.000000
vt 0.428571 0.000000
vt 0.571429 0.000000
vt 0.714286 0.000000
vt 0.857143 0.000000
vt 1.000000 0.000000
vt 0.000000 0.000000
vt 1.000000 0.000000
vt 0.000000 1.000000
vt 1.000000 1.000000
vt 0.125000 0.000000
vt 0.125000 1.000000
vt 0.250000 0.000000
vt 0.250000 1.000000
vt 0.375000 0.000000
vt 0.375000 1.000000
vt 0.500000 0.000000
vt 0.500000 1.000000
vt 0.625000 0.000000
vt 0.625000 1.000000
vt 0.750000 0.000000
vt 0.750000 1.000000
vt 0.875000 0.000000
vt 0.875000 1.000000
vt 0.000000 0.000000
vt 0.125000 0.000000
vt 0.250000 0.000000
vt 0.375000 0.000000
vt 0.500000 0.000000
vt 0.625000 0.000000
vt 0.750000 0.000000
vt 0.875000 0.000000
vt 1.000000 0.000000
vt 0.000000 0.000000
vt 0.125000 0.000000
vt 0.250000 0.000000
vt 0.375000 0.000000
vt 0.500000 0.000000
vt 0.625000 0.000000
vt 0.750000 0.000000
vt 0.875000 0.000000
vt 1.000000 0.000000
vt 0.000000 0.000000
vt 1.000000 0.000000
vt 0.000000 1.000000
vt 1.000000 1.000000
vt 0.111111 0.000000
vt 0.111111 1.000000
vt 0.222222 0.000000
vt 0.222222 1.000000
vt 0.333333 0.000000
vt 0.333333 1.000000
vt 0.444444 0.000000
vt 0.444444 1.000000
vt 0.555556 0.000000
vt 0.555556 1.000000
vt 0.666667 0.000000
vt 0.666667 1.000000
vt 0.777778 0.000000
vt 0.777778 1.000000
vt 0.888889 0.000000
vt 0.888889 1.000000
vt 0.000000 0.000000
vt 0.090909 0.000000
vt 0.181818 0.000000
vt 0.272727 0.000000
vt 0.363636 0.000000
vt 0.454545 0.000000
vt 0.545455 0.000000
vt 0.636364 0.000000
vt 0.727273 0.000000
vt 0.818182 0.000000
vt 0.909091 0.000000
vt 1.000000 0.000000
vt 0.000000 0.000000
vt 0.090909 0.000000
vt 0.181818 0.000000
vt 0.272727 0.000000
vt 0.363636 0.000000
vt 0.454545 0.000000
vt 0.545455 0.000000
vt 0.636364 0.000000
vt 0.727273 0.000000
vt 0.818182 0.000000
vt 0.909091 0.000000
vt 1.000000 0.000000
vt 0.000000 0.000000
vt 1.000000 0.000000
vt 0.000000 1.000000
vt 1.000000 1.000000
vt 0.083333 0.000000
vt 0.083333 1.000000
vt 0.166667 0.000000
vt 0.166667 1.000000
vt 0.250000 0.000000
vt 0.250000 1.000000
vt 0.333333 0.000000
vt 0.333333 1.000000
vt 0.416667 0.000000
vt 0.416667 1.000000
vt 0.500000 0.000000
vt 0.500000 1.000000
vt 0.583333 0.000000
vt 0.583333 1.000000
vt 0.666667 0.000000
vt 0.666667 1.000000
vt 0.750000 0.000000
vt 0.750000 1.000000
vt 0.833333 0.000000
vt 0.833333 1.000000
vt 0.916667 0.000000
vt 0.916667 1.000000
s 0
usemtl Material
f 5/5/1 3/3/1 1/1/1
f 3/3/2 8/13/2 4/4/2
f 7/11/3 6/8/3 8/12/3
f 2/2/4 8/14/4 6/7/4
f 1/1/5 4/4/5 2/2/5
f 5/6/6 2/2/6 6/8/6
f 49/55/7 33/39/7 48/54/7
f 57/63/8 25/31/8 56/62/8
f 56/62/9 26/32/9 55/61/9
f 64/70/10 18/24/10 63/69/10
f 48/54/11 34/40/11 47/53/11
f 72/78/12 10/16/12 71/77/12
f 47/53/13 35/41/13 46/52/13
f 71/77/14 11/17/14 70/76/14
f 55/61/15 27/33/15 54/60/15
f 63/69/16 19/25/16 62/68/16
f 62/68/17 20/26/17 61/67/17
f 46/52/18 36/42/18 45/51/18
f 70/76/19 12/18/19 69/75/19
f 54/60/20 28/34/20 53/59/20
f 53/59/21 29/35/21 52/58/21
f 61/67/22 21/27/22 60/66/22
f 45/51/23 37/43/23 44/50/23
f 69/75/24 13/19/24 68/74/24
f 44/50/25 38/44/25 43/49/25
f 68/74/26 14/20/26 67/73/26
f 52/58/27 30/36/27 51/57/27
f 60/66/28 22/28/28 59/65/28
f 59/65/29 23/29/29 58/64/29
f 43/49/30 39/45/30 42/48/30
f 67/73/31 15/21/31 66/72/31
f 51/57/32 31/37/32 50/56/32
f 50/56/33 32/38/33 49/55/33
f 58/64/34 24/30/34 57/63/34
f 42/48/35 40/46/35 41/47/35
f 65/71/36 17/23/36 64/70/36
f 66/72/37 16/22/37 65/71/37
f 41/47/38 9/15/38 72/78/38
f 11/17/1 76/82/1 12/18/1
f 39/45/1 102/108/1 103/109/1
f 25/31/1 90/96/1 26/32/1
f 13/19/1 76/82/1 77/83/1
f 39/45/1 104/110/1 40/46/1
f 26/32/1 91/97/1 27/33/1
f 13/19/1 78/84/1 14/20/1
f 40/46/1 73/79/1 9/15/1
f 27/33/1 92/98/1 28/34/1
f 14/20/1 79/85/1 15/21/1
f 29/35/1 92/98/1 93/99/1
f 16/22/1 79/85/1 80/86/1
f 30/36/1 93/99/1 94/100/1
f 16/22/1 81/87/1 17/23/1
f 30/36/1 95/101/1 31/37/1
f 18/24/1 81/87/1 82/88/1
f 32/38/1 95/101/1 96/102/1
f 18/24/1 83/89/1 19/25/1
f 32/38/1 97/103/1 33/39/1
f 20/26/1 83/89/1 84/90/1
f 34/40/1 97/103/1 98/104/1
f 20/26/1 85/91/1 21/27/1
f 34/40/1 99/105/1 35/41/1
f 21/27/1 86/92/1 22/28/1
f 36/42/1 99/105/1 100/106/1
f 23/29/1 86/92/1 87/93/1
f 10/16/1 73/79/1 74/80/1
f 37/43/1 100/106/1 101/107/1
f 24/30/1 87/93/1 88/94/1
f 11/17/1 74/80/1 75/81/1
f 37/43/1 102/108/1 38/44/1
f 25/31/1 88/94/1 89/95/1
f 77/83/39 76/82/39 122/128/39
f 104/110/40 103/109/40 122/128/40
f 91/97/41 90/96/41 122/128/41
f 78/84/42 77/83/42 122/128/42
f 73/79/43 104/110/43 122/128/43
f 92/98/44 91/97/44 122/128/44
f 79/85/45 78/84/45 122/128/45
f 93/99/46 92/98/46 122/128/46
f 80/86/47 79/85/47 122/128/47
f 94/100/48 93/99/48 122/128/48
f 81/87/49 80/86/49 122/128/49
f 95/101/50 94/100/50 122/128/50
f 82/88/51 81/87/51 122/128/51
f 96/102/52 95/101/52 122/128/52
f 83/89/53 82/88/53 122/128/53
f 97/103/54 96/102/54 122/128/54
f 84/90/55 83/89/55 122/128/55
f 98/104/56 97/103/56 122/128/56
f 85/91/57 84/90/57 122/128/57
f 99/105/58 98/104/58 122/128/58
f 86/92/59 85/91/59 122/128/59
f 100/106/60 99/105/60 122/128/60
f 87/93/61 86/92/61 122/128/61
f 74/80/62 73/79/62 122/128/62
f 101/107/63 100/106/63 122/128/63
f 88/94/64 87/93/64 122/128/64
f 75/81/65 74/80/65 122/128/65
f 102/108/66 101/107/66 122/128/66
f 89/95/67 88/94/67 122/128/67
f 76/82/68 75/81/68 122/128/68
f 103/109/69 102/108/69 122/128/69
f 90/96/70 89/95/70 122/128/70
f 146/152/71 111/117/71 145/151/71
f 154/160/72 119/125/72 153/159/72
f 153/159/73 118/124/73 152/158/73
f 161/167/74 127/133/74 160/166/74
f 144/150/75 111/117/75 110/116/75
f 169/175/76 135/141/76 168/174/76
f 144/150/77 109/115/77 143/149/77
f 167/173/78 135/141/78 134/140/78
f 152/158/79 117/123/79 151/157/79
f 160/166/80 126/132/80 159/165/80
f 159/165/81 125/131/81 158/164/81
f 143/149/82 108/114/82 142/148/82
f 167/173/83 133/139/83 166/172/83
f 151/157/84 116/122/84 150/156/84
f 150/156/85 115/121/85 149/155/85
f 158/164/86 124/130/86 157/163/86
f 142/148/87 107/113/87 141/147/87
f 166/172/88 132/138/88 165/171/88
f 141/147/89 106/112/89 140/146/89
f 165/171/90 131/137/90 164/170/90
f 149/155/91 114/120/91 148/154/91
f 157/163/92 123/129/92 156/162/92
f 155/161/93 123/129/93 121/127/93
f 140/146/94 105/111/94 139/145/94
f 164/170/95 130/136/95 163/169/95
f 148/154/96 113/119/96 147/153/96
f 146/152/97 113/119/97 112/118/97
f 155/161/98 120/126/98 154/160/98
f 139/145/99 137/143/99 138/144/99
f 162/168/100 128/134/100 161/167/100
f 163/169/101 129/135/101 162/168/101
f 138/144/102 136/142/102 169/175/102
f 134/140/5 173/179/5 133/139/5
f 105/111/5 199/205/5 200/206/5
f 119/125/5 187/193/5 118/124/5
f 132/138/5 173/179/5 174/180/5
f 105/111/5 201/207/5 137/143/5
f 118/124/5 188/194/5 117/123/5
f 132/138/5 175/181/5 131/137/5
f 137/143/5 170/176/5 136/142/5
f 116/122/5 188/194/5 189/195/5
f 130/136/5 175/181/5 176/182/5
f 116/122/5 190/196/5 115/121/5
f 129/135/5 176/182/5 177/183/5
f 114/120/5 190/196/5 191/197/5
f 129/135/5 178/184/5 128/134/5
f 114/120/5 192/198/5 113/119/5
f 127/133/5 178/184/5 179/185/5
f 112/118/5 192/198/5 193/199/5
f 127/133/5 180/186/5 126/132/5
f 112/118/5 194/200/5 111/117/5
f 125/131/5 180/186/5 181/187/5
f 110/116/5 194/200/5 195/201/5
f 124/130/5 181/187/5 182/188/5
f 110/116/5 196/202/5 109/115/5
f 124/130/5 183/189/5 123/129/5
f 109/115/5 197/203/5 108/114/5
f 121/127/5 183/189/5 184/190/5
f 135/141/5 170/176/5 171/177/5
f 108/114/5 198/204/5 107/113/5
f 121/127/5 185/191/5 120/126/5
f 134/140/5 171/177/5 172/178/5
f 106/112/5 198/204/5 199/205/5
f 119/125/5 185/191/5 186/192/5
f 174/180/103 173/179/103 202/208/103
f 201/207/104 200/206/104 202/208/104
f 188/194/105 187/193/105 202/208/105
f 175/181/106 174/180/106 202/208/106
f 170/176/107 201/207/107 202/208/107
f 189/195/108 188/194/108 202/208/108
f 176/182/109 175/181/109 202/208/109
f 190/196/110 189/195/110 202/208/110
f 177/183/111 176/182/111 202/208/111
f 191/197/112 190/196/112 202/208/112
f 178/184/113 177/183/113 202/208/113
f 192/198/114 191/197/114 202/208/114
f 179/185/115 178/184/115 202/208/115
f 193/199/116 192/198/116 202/208/116
f 180/186/117 179/185/117 202/208/117
f 194/200/118 193/199/118 202/208/118
f 181/187/119 180/186/119 202/208/119
f 195/201/120 194/200/120 202/208/120
f 182/188/121 181/187/121 202/208/121
f 196/202/122 195/201/122 202/208/122
f 183/189/123 182/188/123 202/208/123
f 197/203/124 196/202/124 202/208/124
f 184/190/125 183/189/125 202/208/125
f 171/177/126 170/176/126 202/208/126
f 198/204/127 197/203/127 202/208/127
f 185/191/128 184/190/128 202/208/128
f 172/178/129 171/177/129 202/208/129
f 199/205/130 198/204/130 202/208/130
f 186/192/131 185/191/131 202/208/131
f 173/179/132 172/178/132 202/208/132
f 200/206/133 199/205/133 202/208/133
f 187/193/134 186/192/134 202/208/134
f 243/249/135 209/215/135 242/248/135
f 251/257/136 217/223/136 250/256/136
f 250/256/137 216/222/137 249/255/137
f 258/264/138 224/230/138 257/263/138
f 241/247/139 209/215/139 208/214/139
f 266/272/140 232/238/140 265/271/140
f 241/247/141 207/213/141 240/246/141
f 264/270/142 232/238/142 231/237/142
f 249/255/143 215/221/143 248/254/143
f 257/263/144 223/229/144 256/262/144
f 256/262/145 222/228/145 255/261/145
f 240/246/146 206/212/146 239/245/146
f 264/270/147 230/236/147 263/269/147
f 248/254/148 214/220/148 247/253/148
f 247/253/149 213/219/149 246/252/149
f 255/261/150 221/227/150 254/260/150
f 239/245/151 205/211/151 238/244/151
f 263/269/152 229/235/152 262/268/152
f 238/244/153 204/210/153 237/243/153
f 262/268/154 228/234/154 261/267/154
f 246/252/155 212/218/155 245/251/155
f 254/260/156 220/226/156 253/259/156
f 252/258/157 220/226/157 219/225/157
f 237/243/158 203/209/158 236/242/158
f 261/267/159 227/233/159 260/266/159
f 245/251/160 211/217/160 244/250/160
f 243/249/161 211/217/161 210/216/161
f 252/258/162 218/224/162 251/257/162
f 236/242/163 234/240/163 235/241/163
f 259/265/164 225/231/164 258/264/164
f 260/266/165 226/232/165 259/265/165
f 235/241/166 233/239/166 266/272/166
f 231/237/6 270/276/6 230/236/6
f 203/209/6 296/302/6 297/303/6
f 217/223/6 284/290/6 216/222/6
f 229/235/6 270/276/6 271/277/6
f 203/209/6 298/304/6 234/240/6
f 215/221/6 284/290/6 285/291/6
f 229/235/6 272/278/6 228/234/6
f 234/240/6 267/273/6 233/239/6
f 215/221/6 286/292/6 214/220/6
f 228/234/6 273/279/6 227/233/6
f 213/219/6 286/292/6 287/293/6
f 226/232/6 273/279/6 274/280/6
f 213/219/6 288/294/6 212/218/6
f 226/232/6 275/281/6 225/231/6
f 212/218/6 289/295/6 211/217/6
f 224/230/6 275/281/6 276/282/6
f 210/216/6 289/295/6 290/296/6
f 224/230/6 277/283/6 223/229/6
f 210/216/6 291/297/6 209/215/6
f 222/228/6 277/283/6 278/284/6
f 208/214/6 291/297/6 292/298/6
f 221/227/6 278/284/6 279/285/6
f 208/214/6 293/299/6 207/213/6
f 221/227/6 280/286/6 220/226/6
f 207/213/6 294/300/6 206/212/6
f 219/225/6 280/286/6 281/287/6
f 232/238/6 267/273/6 268/274/6
f 205/211/6 294/300/6 295/301/6
f 219/225/6 282/288/6 218/224/6
f 231/237/6 268/274/6 269/275/6
f 205/211/6 296/302/6 204/210/6
f 217/223/6 282/288/6 283/289/6
f 271/277/167 270/276/167 299/305/167
f 298/304/168 297/303/168 299/305/168
f 285/291/169 284/290/169 299/305/169
f 272/278/170 271/277/170 299/305/170
f 267/273/171 298/304/171 299/305/171
f 286/292/172 285/291/172 299/305/172
f 273/279/173 272/278/173 299/305/173
f 287/293/174 286/292/174 299/305/174
f 274/280/175 273/279/175 299/305/175
f 288/294/176 287/293/176 299/305/176
f 275/281/177 274/280/177 299/305/177
f 289/295/178 288/294/178 299/305/178
f 276/282/179 275/281/179 299/305/179
f 290/296/180 289/295/180 299/305/180
f 277/283/181 276/282/181 299/305/181
f 291/297/182 290/296/182 299/305/182
f 278/284/183 277/283/183 299/305/183
f 292/298/184 291/297/184 299/305/184
f 279/285/185 278/284/185 299/305/185
f 293/299/186 292/298/186 299/305/186
f 280/286/187 279/285/187 299/305/187
f 294/300/188 293/299/188 299/305/188
f 281/287/189 280/286/189 299/305/189
f 268/274/190 267/273/190 299/305/190
f 295/301/191 294/300/191 299/305/191
f 282/288/192 281/287/192 299/305/192
f 269/275/193 268/274/193 299/305/193
f 296/302/194 295/301/194 299/305/194
f 283/289/195 282/288/195 299/305/195
f 270/276/196 269/275/196 299/305/196
f 297/303/197 296/302/197 299/305/197
f 284/290/198 283/289/198 299/305/198
f 307/313/1 301/307/1 300/306/1
f 307/313/1 306/312/1 301/307/1
f 306/312/1 302/308/1 301/307/1
f 305/311/1 302/308/1 306/312/1
f 305/311/1 303/309/1 302/308/1
f 305/311/1 304/310/1 303/309/1
f 315/321/4 308/314/4 309/315/4
f 315/321/4 309/315/4 314/320/4
f 314/320/4 309/315/4 310/316/4
f 313/319/4 314/320/4 310/316/4
f 313/319/4 310/316/4 311/317/4
f 313/319/4 311/317/4 312/318/4
s 1
f 319/327/199 316/322/200 317/324/200
f 321/329/199 318/326/199 319/327/199
f 323/331/201 320/328/199 321/329/199
f 325/333/202 322/330/201 323/331/201
f 327/335/203 324/332/202 325/333/202
f 329/337/203 326/334/203 327/335/203
f 331/339/204 328/336/203 329/337/203
f 317/325/200 330/338/204 331/339/204
s 0
f 336/344/2 338/346/2 337/345/2
f 336/344/2 339/347/2 338/346/2
f 339/347/2 332/340/2 340/348/2
f 339/347/2 333/341/2 332/340/2
f 336/344/2 333/341/2 339/347/2
f 335/343/2 333/341/2 336/344/2
f 335/343/2 334/342/2 333/341/2
f 345/353/6 346/354/6 347/355/6
f 345/353/6 347/355/6 348/356/6
f 348/356/6 349/357/6 341/349/6
f 348/356/6 341/349/6 342/350/6
f 345/353/6 348/356/6 342/350/6
f 344/352/6 345/353/6 342/350/6
f 344/352/6 342/350/6 343/351/6
s 1
f 353/363/205 350/358/206 351/360/206
f 355/365/207 352/362/205 353/363/205
f 357/367/208 354/364/207 355/365/207
f 357/367/208 358/368/209 356/366/208
f 361/371/210 358/368/209 359/369/209
f 363/373/211 360/370/210 361/371/210
f 365/375/212 362/372/211 363/373/211
f 367/377/213 364/374/212 365/375/212
f 351/361/206 366/376/213 367/377/213
s 0
f 373/383/5 375/385/5 374/384/5
f 373/383/5 376/386/5 375/385/5
f 376/386/5 378/388/5 377/387/5
f 376/386/5 379/389/5 378/388/5
f 373/383/5 379/389/5 376/386/5
f 372/382/5 379/389/5 373/383/5
f 372/382/5 370/380/5 379/389/5
f 370/380/5 368/378/5 379/389/5
f 372/382/5 371/381/5 370/380/5
f 369/379/5 368/378/5 370/380/5
f 385/395/3 386/396/3 387/397/3
f 385/395/3 387/397/3 388/398/3
f 388/398/3 389/399/3 390/400/3
f 388/398/3 390/400/3 391/401/3
f 385/395/3 388/398/3 391/401/3
f 384/394/3 385/395/3 391/401/3
f 384/394/3 391/401/3 382/392/3
f 382/392/3 391/401/3 380/390/3
f 384/394/3 382/392/3 383/393/3
f 381/391/3 382/392/3 380/390/3
s 1
f 395/407/214 392/402/215 393/404/215
f 395/407/214 396/408/216 394/406/214
f 399/411/217 396/408/216 397/409/216
f 399/411/217 400/412/218 398/410/217
f 403/415/219 400/412/218 401/413/218
f 403/415/219 404/416/220 402/414/219
f 405/417/220 406/418/221 404/416/220
f 409/421/222 406/418/221 407/419/221
f 409/421/222 410/422/223 408/420/222
f 413/425/224 410/422/223 411/423/223
f 415/427/225 412/424/224 413/425/224
f 393/405/215 414/426/225 415/427/225
s 0
f 5/5/1 7/9/1 3/3/1
f 3/3/2 7/10/2 8/13/2
f 7/11/3 5/6/3 6/8/3
f 2/2/4 4/4/4 8/14/4
f 1/1/5 3/3/5 4/4/5
f 5/6/6 1/1/6 2/2/6
f 49/55/7 32/38/7 33/39/7
f 57/63/8 24/30/8 25/31/8
f 56/62/9 25/31/9 26/32/9
f 64/70/10 17/23/10 18/24/10
f 48/54/11 33/39/11 34/40/11
f 72/78/12 9/15/12 10/16/12
f 47/53/13 34/40/13 35/41/13
f 71/77/14 10/16/14 11/17/14
f 55/61/15 26/32/15 27/33/15
f 63/69/16 18/24/16 19/25/16
f 62/68/17 19/25/17 20/26/17
f 46/52/18 35/41/18 36/42/18
f 70/76/19 11/17/19 12/18/19
f 54/60/20 27/33/20 28/34/20
f 53/59/21 28/34/21 29/35/21
f 61/67/22 20/26/22 21/27/22
f 45/51/23 36/42/23 37/43/23
f 69/75/24 12/18/24 13/19/24
f 44/50/25 37/43/25 38/44/25
f 68/74/26 13/19/26 14/20/26
f 52/58/27 29/35/27 30/36/27
f 60/66/28 21/27/28 22/28/28
f 59/65/29 22/28/29 23/29/29
f 43/49/30 38/44/30 39/45/30
f 67/73/31 14/20/31 15/21/31
f 51/57/32 30/36/32 31/37/32
f 50/56/33 31/37/33 32/38/33
f 58/64/34 23/29/34 24/30/34
f 42/48/35 39/45/35 40/46/35
f 65/71/36 16/22/36 17/23/36
f 66/72/37 15/21/37 16/22/37
f 41/47/38 40/46/38 9/15/38
f 11/17/1 75/81/1 76/82/1
f 39/45/1 38/44/1 102/108/1
f 25/31/1 89/95/1 90/96/1
f 13/19/1 12/18/1 76/82/1
f 39/45/1 103/109/1 104/110/1
f 26/32/1 90/96/1 91/97/1
f 13/19/1 77/83/1 78/84/1
f 40/46/1 104/110/1 73/79/1
f 27/33/1 91/97/1 92/98/1
f 14/20/1 78/84/1 79/85/1
f 29/35/1 28/34/1 92/98/1
f 16/22/1 15/21/1 79/85/1
f 30/36/1 29/35/1 93/99/1
f 16/22/1 80/86/1 81/87/1
f 30/36/1 94/100/1 95/101/1
f 18/24/1 17/23/1 81/87/1
f 32/38/1 31/37/1 95/101/1
f 18/24/1 82/88/1 83/89/1
f 32/38/1 96/102/1 97/103/1
f 20/26/1 19/25/1 83/89/1
f 34/40/1 33/39/1 97/103/1
f 20/26/1 84/90/1 85/91/1
f 34/40/1 98/104/1 99/105/1
f 21/27/1 85/91/1 86/92/1
f 36/42/1 35/41/1 99/105/1
f 23/29/1 22/28/1 86/92/1
f 10/16/1 9/15/1 73/79/1
f 37/43/1 36/42/1 100/106/1
f 24/30/1 23/29/1 87/93/1
f 11/17/1 10/16/1 74/80/1
f 37/43/1 101/107/1 102/108/1
f 25/31/1 24/30/1 88/94/1
f 146/152/71 112/118/71 111/117/71
f 154/160/72 120/126/72 119/125/72
f 153/159/73 119/125/73 118/124/73
f 161/167/74 128/134/74 127/133/74
f 144/150/75 145/151/75 111/117/75
f 169/175/76 136/142/76 135/141/76
f 144/150/77 110/116/77 109/115/77
f 167/173/78 168/174/78 135/141/78
f 152/158/79 118/124/79 117/123/79
f 160/166/80 127/133/80 126/132/80
f 159/165/81 126/132/81 125/131/81
f 143/149/82 109/115/82 108/114/82
f 167/173/83 134/140/83 133/139/83
f 151/157/84 117/123/84 116/122/84
f 150/156/85 116/122/85 115/121/85
f 158/164/86 125/131/86 124/130/86
f 142/148/87 108/114/87 107/113/87
f 166/172/88 133/139/88 132/138/88
f 141/147/89 107/113/89 106/112/89
f 165/171/90 132/138/90 131/137/90
f 149/155/91 115/121/91 114/120/91
f 157/163/92 124/130/92 123/129/92
f 155/161/93 156/162/93 123/129/93
f 140/146/94 106/112/94 105/111/94
f 164/170/95 131/137/95 130/136/95
f 148/154/96 114/120/96 113/119/96
f 146/152/97 147/153/97 113/119/97
f 155/161/98 121/127/98 120/126/98
f 139/145/99 105/111/99 137/143/99
f 162/168/100 129/135/100 128/134/100
f 163/169/101 130/136/101 129/135/101
f 138/144/102 137/143/102 136/142/102
f 134/140/5 172/178/5 173/179/5
f 105/111/5 106/112/5 199/205/5
f 119/125/5 186/192/5 187/193/5
f 132/138/5 133/139/5 173/179/5
f 105/111/5 200/206/5 201/207/5
f 118/124/5 187/193/5 188/194/5
f 132/138/5 174/180/5 175/181/5
f 137/143/5 201/207/5 170/176/5
f 116/122/5 117/123/5 188/194/5
f 130/136/5 131/137/5 175/181/5
f 116/122/5 189/195/5 190/196/5
f 129/135/5 130/136/5 176/182/5
f 114/120/5 115/121/5 190/196/5
f 129/135/5 177/183/5 178/184/5
f 114/120/5 191/197/5 192/198/5
f 127/133/5 128/134/5 178/184/5
f 112/118/5 113/119/5 192/198/5
f 127/133/5 179/185/5 180/186/5
f 112/118/5 193/199/5 194/200/5
f 125/131/5 126/132/5 180/186/5
f 110/116/5 111/117/5 194/200/5
f 124/130/5 125/131/5 181/187/5
f 110/116/5 195/201/5 196/202/5
f 124/130/5 182/188/5 183/189/5
f 109/115/5 196/202/5 197/203/5
f 121/127/5 123/129/5 183/189/5
f 135/141/5 136/142/5 170/176/5
f 108/114/5 197/203/5 198/204/5
f 121/127/5 184/190/5 185/191/5
f 134/140/5 135/141/5 171/177/5
f 106/112/5 107/113/5 198/204/5
f 119/125/5 120/126/5 185/191/5
f 243/249/135 210/216/135 209/215/135
f 251/257/136 218/224/136 217/223/136
f 250/256/137 217/223/137 216/222/137
f 258/264/138 225/231/138 224/230/138
f 241/247/139 242/248/139 209/215/139
f 266/272/140 233/239/140 232/238/140
f 241/247/141 208/214/141 207/213/141
f 264/270/142 265/271/142 232/238/142
f 249/255/143 216/222/143 215/221/143
f 257/263/144 224/230/144 223/229/144
f 256/262/145 223/229/145 222/228/145
f 240/246/146 207/213/146 206/212/146
f 264/270/147 231/237/147 230/236/147
f 248/254/148 215/221/148 214/220/148
f 247/253/149 214/220/149 213/219/149
f 255/261/150 222/228/150 221/227/150
f 239/245/151 206/212/151 205/211/151
f 263/269/152 230/236/152 229/235/152
f 238/244/153 205/211/153 204/210/153
f 262/268/154 229/235/154 228/234/154
f 246/252/155 213/219/155 212/218/155
f 254/260/156 221/227/156 220/226/156
f 252/258/157 253/259/157 220/226/157
f 237/243/158 204/210/158 203/209/158
f 261/267/159 228/234/159 227/233/159
f 245/251/160 212/218/160 211/217/160
f 243/249/161 244/250/161 211/217/161
f 252/258/162 219/225/162 218/224/162
f 236/242/163 203/209/163 234/240/163
f 259/265/164 226/232/164 225/231/164
f 260/266/165 227/233/165 226/232/165
f 235/241/166 234/240/166 233/239/166
f 231/237/6 269/275/6 270/276/6
f 203/209/6 204/210/6 296/302/6
f 217/223/6 283/289/6 284/290/6
f 229/235/6 230/236/6 270/276/6
f 203/209/6 297/303/6 298/304/6
f 215/221/6 216/222/6 284/290/6
f 229/235/6 271/277/6 272/278/6
f 234/240/6 298/304/6 267/273/6
f 215/221/6 285/291/6 286/292/6
f 228/234/6 272/278/6 273/279/6
f 213/219/6 214/220/6 286/292/6
f 226/232/6 227/233/6 273/279/6
f 213/219/6 287/293/6 288/294/6
f 226/232/6 274/280/6 275/281/6
f 212/218/6 288/294/6 289/295/6
f 224/230/6 225/231/6 275/281/6
f 210/216/6 211/217/6 289/295/6
f 224/230/6 276/282/6 277/283/6
f 210/216/6 290/296/6 291/297/6
f 222/228/6 223/229/6 277/283/6
f 208/214/6 209/215/6 291/297/6
f 221/227/6 222/228/6 278/284/6
f 208/214/6 292/298/6 293/299/6
f 221/227/6 279/285/6 280/286/6
f 207/213/6 293/299/6 294/300/6
f 219/225/6 220/226/6 280/286/6
f 232/238/6 233/239/6 267/273/6
f 205/211/6 206/212/6 294/300/6
f 219/225/6 281/287/6 282/288/6
f 231/237/6 232/238/6 268/274/6
f 205/211/6 295/301/6 296/302/6
f 217/223/6 218/224/6 282/288/6
s 1
f 319/327/199 318/326/199 316/322/200
f 321/329/199 320/328/199 318/326/199
f 323/331/201 322/330/201 320/328/199
f 325/333/202 324/332/202 322/330/201
f 327/335/203 326/334/203 324/332/202
f 329/337/203 328/336/203 326/334/203
f 331/339/204 330/338/204 328/336/203
f 317/325/200 316/323/200 330/338/204
f 353/363/205 352/362/205 350/358/206
f 355/365/207 354/364/207 352/362/205
f 357/367/208 356/366/208 354/364/207
f 357/367/208 359/369/209 358/368/209
f 361/371/210 360/370/210 358/368/209
f 363/373/211 362/372/211 360/370/210
f 365/375/212 364/374/212 362/372/211
f 367/377/213 366/376/213 364/374/212
f 351/361/206 350/359/206 366/376/213
f 395/407/214 394/406/214 392/402/215
f 395/407/214 397/409/216 396/408/216
f 399/411/217 398/410/217 396/408/216
f 399/411/217 401/413/218 400/412/218
f 403/415/219 402/414/219 400/412/218
f 403/415/219 405/417/220 404/416/220
f 405/417/220 407/419/221 406/418/221
f 409/421/222 408/420/222 406/418/221
f 409/421/222 411/423/223 410/422/223
f 413/425/224 412/424/224 410/422/223
f 415/427/225 414/426/225 412/424/224
f 393/405/215 392/403/215 414/426/225
