<?xml version="1.0" encoding="utf-8"?>
<COLLADA xmlns="http://www.collada.org/2005/11/COLLADASchema" version="1.4.1" xmlns:xsi="http://www.w3.org/2001/XMLSchema-instance">
  <asset>
    <contributor>
      <author>Blender User</author>
      <authoring_tool>Blender 3.4.1 commit date:2022-12-19, commit time:17:00, hash:55485cb379f7</authoring_tool>
    </contributor>
    <created>2023-05-16T10:34:44</created>
    <modified>2023-05-16T10:34:44</modified>
    <unit name="meter" meter="1"/>
    <up_axis>Z_UP</up_axis>
  </asset>
  <library_effects>
    <effect id="Material-effect">
      <profile_COMMON>
        <technique sid="common">
          <lambert>
            <emission>
              <color sid="emission">0 0 0 1</color>
            </emission>
            <diffuse>
              <color sid="diffuse">0.8 0.8 0.8 1</color>
            </diffuse>
            <index_of_refraction>
              <float sid="ior">1.45</float>
            </index_of_refraction>
          </lambert>
        </technique>
      </profile_COMMON>
    </effect>
  </library_effects>
  <library_images/>
  <library_materials>
    <material id="Material-material" name="Material">
      <instance_effect url="#Material-effect"/>
    </material>
  </library_materials>
  <library_geometries>
    <geometry id="Cube-mesh" name="Cube">
      <mesh>
        <source id="Cube-mesh-positions">
          <float_array id="Cube-mesh-positions-array" count="48">1 1 1 1 1 -1 1 -1 1 1 -1 -1 -1 1 1 -1 1 -1 -1 -1 1 -1 -1 -1 1 1 0.3333333 1 1 -0.3333333 -1 -1 -0.3333333 -1 -1 0.3333333 1 -1 0.3333333 1 -1 -0.3333333 -1 1 0.3333333 -1 1 -0.3333333</float_array>
          <technique_common>
            <accessor source="#Cube-mesh-positions-array" count="16" stride="3">
              <param name="X" type="float"/>
              <param name="Y" type="float"/>
              <param name="Z" type="float"/>
            </accessor>
          </technique_common>
        </source>
        <source id="Cube-mesh-normals">
          <float_array id="Cube-mesh-normals-array" count="18">0 0 1 0 -1 0 -1 0 0 0 0 -1 1 0 0 0 1 0</float_array>
          <technique_common>
            <accessor source="#Cube-mesh-normals-array" count="6" stride="3">
              <param name="X" type="float"/>
              <param name="Y" type="float"/>
              <param name="Z" type="float"/>
            </accessor>
          </technique_common>
        </source>
        <source id="Cube-mesh-map-0">
          <float_array id="Cube-mesh-map-0-array" count="168">0.875 0.5 0.625 0.75 0.625 0.5 0.625 0.75 0.5416666 1 0.5416666 0.75 0.625 0 0.5416666 0.25 0.5416666 0 0.375 0.5 0.125 0.75 0.125 0.5 0.625 0.5 0.5416666 0.75 0.5416666 0.5 0.625 0.25 0.5416666 0.5 0.5416666 0.25 0.4583333 0.25 0.375 0.5 0.375 0.25 0.5416666 0.25 0.4583333 0.5 0.4583333 0.25 0.4583333 0.5 0.375 0.75 0.375 0.5 0.5416666 0.5 0.4583333 0.75 0.4583333 0.5 0.4583333 0 0.375 0.25 0.375 0 0.5416666 0 0.4583333 0.25 0.4583333 0 0.4583333 0.75 0.375 1 0.375 0.75 0.5416666 0.75 0.4583333 1 0.4583333 0.75 0.875 0.5 0.875 0.75 0.625 0.75 0.625 0.75 0.625 1 0.5416666 1 0.625 0 0.625 0.25 0.5416666 0.25 0.375 0.5 0.375 0.75 0.125 0.75 0.625 0.5 0.625 0.75 0.5416666 0.75 0.625 0.25 0.625 0.5 0.5416666 0.5 0.4583333 0.25 0.4583333 0.5 0.375 0.5 0.5416666 0.25 0.5416666 0.5 0.4583333 0.5 0.4583333 0.5 0.4583333 0.75 0.375 0.75 0.5416666 0.5 0.5416666 0.75 0.4583333 0.75 0.4583333 0 0.4583333 0.25 0.375 0.25 0.5416666 0 0.5416666 0.25 0.4583333 0.25 0.4583333 0.75 0.4583333 1 0.375 1 0.5416666 0.75 0.5416666 1 0.4583333 1</float_array>
          <technique_common>
            <accessor source="#Cube-mesh-map-0-array" count="84" stride="2">
              <param name="S" type="float"/>
              <param name="T" type="float"/>
            </accessor>
          </technique_common>
        </source>
        <vertices id="Cube-mesh-vertices">
          <input semantic="POSITION" source="#Cube-mesh-positions"/>
        </vertices>
        <triangles material="Material-material" count="28">
          <input semantic="VERTEX" source="#Cube-mesh-vertices" offset="0"/>
          <input semantic="NORMAL" source="#Cube-mesh-normals" offset="1"/>
          <input semantic="TEXCOORD" source="#Cube-mesh-map-0" offset="2" set="0"/>
          <p>4 0 0 2 0 1 0 0 2 2 1 3 11 1 4 12 1 5 6 2 6 14 2 7 11 2 8 1 3 9 7 3 10 5 3 11 0 4 12 12 4 13 8 4 14 4 5 15 8 5 16 14 5 17 15 5 18 1 5 19 5 5 20 14 5 21 9 5 22 15 5 23 9 4 24 3 4 25 1 4 26 8 4 27 13 4 28 9 4 29 10 2 30 5 2 31 7 2 32 11 2 33 15 2 34 10 2 35 13 1 36 7 1 37 3 1 38 12 1 39 10 1 40 13 1 41 4 0 42 6 0 43 2 0 44 2 1 45 6 1 46 11 1 47 6 2 48 4 2 49 14 2 50 1 3 51 3 3 52 7 3 53 0 4 54 2 4 55 12 4 56 4 5 57 0 5 58 8 5 59 15 5 60 9 5 61 1 5 62 14 5 63 8 5 64 9 5 65 9 4 66 13 4 67 3 4 68 8 4 69 12 4 70 13 4 71 10 2 72 15 2 73 5 2 74 11 2 75 14 2 76 15 2 77 13 1 78 10 1 79 7 1 80 12 1 81 11 1 82 10 1 83</p>
        </triangles>
      </mesh>
    </geometry>
  </library_geometries>
  <library_controllers>
    <controller id="Armature_Cube-skin" name="Armature">
      <skin source="#Cube-mesh">
        <bind_shape_matrix>1 0 0 0 0 1 0 0 0 0 20 20 0 0 0 1</bind_shape_matrix>
        <source id="Armature_Cube-skin-joints">
          <Name_array id="Armature_Cube-skin-joints-array" count="3">Bone Bone_001 Bone_002</Name_array>
          <technique_common>
            <accessor source="#Armature_Cube-skin-joints-array" count="3" stride="1">
              <param name="JOINT" type="name"/>
            </accessor>
          </technique_common>
        </source>
        <source id="Armature_Cube-skin-bind_poses">
          <float_array id="Armature_Cube-skin-bind_poses-array" count="48">1 0 0 0 0 0 1 0 0 -1 0 0 0 0 0 1 1 0 0 0 0 0 1 -14.25394 0 -1 0 0 0 0 0 1 1 0 0 0 0 0 1 -28.48223 0 -1 0 0 0 0 0 1</float_array>
          <technique_common>
            <accessor source="#Armature_Cube-skin-bind_poses-array" count="3" stride="16">
              <param name="TRANSFORM" type="float4x4"/>
            </accessor>
          </technique_common>
        </source>
        <source id="Armature_Cube-skin-weights">
          <float_array id="Armature_Cube-skin-weights-array" count="16">1 1 1 1 1 1 1 1 1 1 1 1 1 1 1 1</float_array>
          <technique_common>
            <accessor source="#Armature_Cube-skin-weights-array" count="16" stride="1">
              <param name="WEIGHT" type="float"/>
            </accessor>
          </technique_common>
        </source>
        <joints>
          <input semantic="JOINT" source="#Armature_Cube-skin-joints"/>
          <input semantic="INV_BIND_MATRIX" source="#Armature_Cube-skin-bind_poses"/>
        </joints>
        <vertex_weights count="16">
          <input semantic="JOINT" source="#Armature_Cube-skin-joints" offset="0"/>
          <input semantic="WEIGHT" source="#Armature_Cube-skin-weights" offset="1"/>
          <vcount>1 1 1 1 1 1 1 1 1 1 1 1 1 1 1 1 </vcount>
          <v>2 0 0 1 2 2 0 3 2 4 0 5 2 6 0 7 1 8 0 9 0 10 1 11 1 12 0 13 1 14 0 15</v>
        </vertex_weights>
      </skin>
    </controller>
  </library_controllers>
  <library_animations>
    <animation id="action_container-Armature" name="Armature">
      <animation id="Armature_ArmatureAction_Bone_pose_matrix" name="Armature">
        <source id="Armature_ArmatureAction_Bone_pose_matrix-input">
          <float_array id="Armature_ArmatureAction_Bone_pose_matrix-input-array" count="10">0.04166662 0.08333331 0.125 0.1666666 0.2083333 0.25 0.2916666 0.3333333 0.375 0.4166666</float_array>
          <technique_common>
            <accessor source="#Armature_ArmatureAction_Bone_pose_matrix-input-array" count="10" stride="1">
              <param name="TIME" type="float"/>
            </accessor>
          </technique_common>
        </source>
        <source id="Armature_ArmatureAction_Bone_pose_matrix-output">
          <float_array id="Armature_ArmatureAction_Bone_pose_matrix-output-array" count="160">1 0 0 0 0 0 -1 0 0 1 0 0 0 0 0 1 0.9988007 0.04896111 0 0 0 0 -1 0 -0.04896111 0.9988007 0 0 0 0 0 1 0.9829736 0.1837466 0 0 0 0 -1 0 -0.1837466 0.9829736 0 0 0 0 0 1 0.9242647 0.3817524 0 0 0 0 -1 0 -0.3817524 0.9242647 0 0 0 0 0 1 0.7972255 0.6036816 0 0 0 0 -1 0 -0.6036816 0.7972255 0 0 0 0 0 1 0.6036816 0.7972255 0 0 0 0 -1 0 -0.7972255 0.6036816 0 0 0 0 0 1 0.3817526 0.9242646 0 0 0 0 -1 0 -0.9242646 0.3817526 0 0 0 0 0 1 0.1837468 0.9829736 0 0 0 0 -1 0 -0.9829736 0.1837468 0 0 0 0 0 1 0.04896125 0.9988006 0 0 0 0 -1 0 -0.9988006 0.04896125 0 0 0 0 0 1 2.02816e-7 0.9999999 0 0 0 0 -1 0 -0.9999999 2.02816e-7 0 0 0 0 0 1</float_array>
          <technique_common>
            <accessor source="#Armature_ArmatureAction_Bone_pose_matrix-output-array" count="10" stride="16">
              <param name="TRANSFORM" type="float4x4"/>
            </accessor>
          </technique_common>
        </source>
        <source id="Armature_ArmatureAction_Bone_pose_matrix-interpolation">
          <Name_array id="Armature_ArmatureAction_Bone_pose_matrix-interpolation-array" count="10">LINEAR LINEAR LINEAR LINEAR LINEAR LINEAR LINEAR LINEAR LINEAR LINEAR</Name_array>
          <technique_common>
            <accessor source="#Armature_ArmatureAction_Bone_pose_matrix-interpolation-array" count="10" stride="1">
              <param name="INTERPOLATION" type="name"/>
            </accessor>
          </technique_common>
        </source>
        <sampler id="Armature_ArmatureAction_Bone_pose_matrix-sampler">
          <input semantic="INPUT" source="#Armature_ArmatureAction_Bone_pose_matrix-input"/>
          <input semantic="OUTPUT" source="#Armature_ArmatureAction_Bone_pose_matrix-output"/>
          <input semantic="INTERPOLATION" source="#Armature_ArmatureAction_Bone_pose_matrix-interpolation"/>
        </sampler>
        <channel source="#Armature_ArmatureAction_Bone_pose_matrix-sampler" target="Armature_Bone/transform"/>
      </animation>
      <animation id="Armature_ArmatureAction_Bone_001_pose_matrix" name="Armature">
        <source id="Armature_ArmatureAction_Bone_001_pose_matrix-input">
          <float_array id="Armature_ArmatureAction_Bone_001_pose_matrix-input-array" count="10">0.04166662 0.08333331 0.125 0.1666666 0.2083333 0.25 0.2916666 0.3333333 0.375 0.4166666</float_array>
          <technique_common>
            <accessor source="#Armature_ArmatureAction_Bone_001_pose_matrix-input-array" count="10" stride="1">
              <param name="TIME" type="float"/>
            </accessor>
          </technique_common>
        </source>
        <source id="Armature_ArmatureAction_Bone_001_pose_matrix-output">
          <float_array id="Armature_ArmatureAction_Bone_001_pose_matrix-output-array" count="160">1 0 0 0 0 0.9999999 0 14.25394 0 0 1 0 0 0 0 1 0.9988007 -0.04896111 0 0 0.04896111 0.9988006 0 14.25394 0 0 1 0 0 0 0 1 0.9829736 -0.1837466 0 0 0.1837466 0.9829736 0 14.25394 0 0 1 0 0 0 0 1 0.9242647 -0.3817524 0 0 0.3817524 0.9242647 0 14.25394 0 0 1 0 0 0 0 1 0.7972255 -0.6036817 0 0 0.6036816 0.7972255 0 14.25394 0 0 1 0 0 0 0 1 0.6036817 -0.7972255 0 0 0.7972255 0.6036816 0 14.25394 0 0 1 0 0 0 0 1 0.3817526 -0.9242646 0 0 0.9242645 0.3817525 0 14.25394 0 0 1 0 0 0 0 1 0.1837468 -0.9829736 0 0 0.9829736 0.1837468 0 14.25394 0 0 1 0 0 0 0 1 0.04896125 -0.9988006 0 5.96046e-8 0.9988006 0.04896124 0 14.25394 0 0 1 0 0 0 0 1 2.02816e-7 -0.9999999 0 2.27374e-13 0.9999998 2.02816e-7 0 14.25394 0 0 1 0 0 0 0 1</float_array>
          <technique_common>
            <accessor source="#Armature_ArmatureAction_Bone_001_pose_matrix-output-array" count="10" stride="16">
              <param name="TRANSFORM" type="float4x4"/>
            </accessor>
          </technique_common>
        </source>
        <source id="Armature_ArmatureAction_Bone_001_pose_matrix-interpolation">
          <Name_array id="Armature_ArmatureAction_Bone_001_pose_matrix-interpolation-array" count="10">LINEAR LINEAR LINEAR LINEAR LINEAR LINEAR LINEAR LINEAR LINEAR LINEAR</Name_array>
          <technique_common>
            <accessor source="#Armature_ArmatureAction_Bone_001_pose_matrix-interpolation-array" count="10" stride="1">
              <param name="INTERPOLATION" type="name"/>
            </accessor>
          </technique_common>
        </source>
        <sampler id="Armature_ArmatureAction_Bone_001_pose_matrix-sampler">
          <input semantic="INPUT" source="#Armature_ArmatureAction_Bone_001_pose_matrix-input"/>
          <input semantic="OUTPUT" source="#Armature_ArmatureAction_Bone_001_pose_matrix-output"/>
          <input semantic="INTERPOLATION" source="#Armature_ArmatureAction_Bone_001_pose_matrix-interpolation"/>
        </sampler>
        <channel source="#Armature_ArmatureAction_Bone_001_pose_matrix-sampler" target="Armature_Bone_001/transform"/>
      </animation>
      <animation id="Armature_ArmatureAction_Bone_002_pose_matrix" name="Armature">
        <source id="Armature_ArmatureAction_Bone_002_pose_matrix-input">
          <float_array id="Armature_ArmatureAction_Bone_002_pose_matrix-input-array" count="10">0.04166662 0.08333331 0.125 0.1666666 0.2083333 0.25 0.2916666 0.3333333 0.375 0.4166666</float_array>
          <technique_common>
            <accessor source="#Armature_ArmatureAction_Bone_002_pose_matrix-input-array" count="10" stride="1">
              <param name="TIME" type="float"/>
            </accessor>
          </technique_common>
        </source>
        <source id="Armature_ArmatureAction_Bone_002_pose_matrix-output">
          <float_array id="Armature_ArmatureAction_Bone_002_pose_matrix-output-array" count="160">1 0 0 0 0 1 0 14.22829 0 0 1 0 0 0 0 1 0.9988007 0.04896111 0 0 -0.04896111 0.9988008 0 14.22829 0 0 1 0 0 0 0 1 0.9829736 0.1837466 0 0 -0.1837466 0.9829737 0 14.22829 0 0 1 0 0 0 0 1 0.9242647 0.3817524 0 0 -0.3817524 0.9242647 0 14.22829 0 0 1 0 0 0 0 1 0.7972255 0.6036816 0 0 -0.6036816 0.7972255 0 14.22829 0 0 1 0 0 0 0 1 0.6036816 0.7972255 0 0 -0.7972255 0.6036816 0 14.22829 0 0 1 0 0 0 0 1 0.3817526 0.9242646 0 9.53674e-7 -0.9242646 0.3817526 0 14.22829 0 0 1 0 0 0 0 1 0.1837468 0.9829736 0 0 -0.9829736 0.1837468 0 14.22829 0 0 1 0 0 0 0 1 0.04896125 0.9988007 0 9.53674e-7 -0.9988006 0.04896125 0 14.22829 0 0 1 0 0 0 0 1 2.02816e-7 1 0 9.53674e-7 -0.9999999 2.02816e-7 0 14.22829 0 0 1 0 0 0 0 1</float_array>
          <technique_common>
            <accessor source="#Armature_ArmatureAction_Bone_002_pose_matrix-output-array" count="10" stride="16">
              <param name="TRANSFORM" type="float4x4"/>
            </accessor>
          </technique_common>
        </source>
        <source id="Armature_ArmatureAction_Bone_002_pose_matrix-interpolation">
          <Name_array id="Armature_ArmatureAction_Bone_002_pose_matrix-interpolation-array" count="10">LINEAR LINEAR LINEAR LINEAR LINEAR LINEAR LINEAR LINEAR LINEAR LINEAR</Name_array>
          <technique_common>
            <accessor source="#Armature_ArmatureAction_Bone_002_pose_matrix-interpolation-array" count="10" stride="1">
              <param name="INTERPOLATION" type="name"/>
            </accessor>
          </technique_common>
        </source>
        <sampler id="Armature_ArmatureAction_Bone_002_pose_matrix-sampler">
          <input semantic="INPUT" source="#Armature_ArmatureAction_Bone_002_pose_matrix-input"/>
          <input semantic="OUTPUT" source="#Armature_ArmatureAction_Bone_002_pose_matrix-output"/>
          <input semantic="INTERPOLATION" source="#Armature_ArmatureAction_Bone_002_pose_matrix-interpolation"/>
        </sampler>
        <channel source="#Armature_ArmatureAction_Bone_002_pose_matrix-sampler" target="Armature_Bone_002/transform"/>
      </animation>
    </animation>
  </library_animations>
  <library_visual_scenes>
    <visual_scene id="Scene" name="Scene">
      <node id="Armature" name="Armature" type="NODE">
        <matrix sid="transform">1 0 0 0 0 1 0 0 0 0 1 0 0 0 0 1</matrix>
        <node id="Armature_Bone" name="Bone" sid="Bone" type="JOINT">
          <matrix sid="transform">1 0 0 0 0 0 -1 0 0 1 0 0 0 0 0 1</matrix>
          <node id="Armature_Bone_001" name="Bone.001" sid="Bone_001" type="JOINT">
            <matrix sid="transform">1 0 0 0 0 0.9999999 0 14.25394 0 0 1 0 0 0 0 1</matrix>
            <node id="Armature_Bone_002" name="Bone.002" sid="Bone_002" type="JOINT">
              <matrix sid="transform">1 0 0 0 0 1 0 14.22829 0 0 1 0 0 0 0 1</matrix>
              <extra>
                <technique profile="blender">
                  <connect sid="connect" type="bool">1</connect>
                  <layer sid="layer" type="string">0</layer>
                  <tip_x sid="tip_x" type="float">0</tip_x>
                  <tip_y sid="tip_y" type="float">0</tip_y>
                  <tip_z sid="tip_z" type="float">11.58685</tip_z>
                </technique>
              </extra>
            </node>
            <extra>
              <technique profile="blender">
                <connect sid="connect" type="bool">1</connect>
                <layer sid="layer" type="string">0</layer>
              </technique>
            </extra>
          </node>
          <extra>
            <technique profile="blender">
              <layer sid="layer" type="string">0</layer>
            </technique>
          </extra>
        </node>
        <node id="Cube" name="Cube" type="NODE">
          <matrix sid="transform">1 0 0 0 0 1 0 0 0 0 1 0 0 0 0 1</matrix>
          <instance_controller url="#Armature_Cube-skin">
            <skeleton>#Armature_Bone</skeleton>
            <bind_material>
              <technique_common>
                <instance_material symbol="Material-material" target="#Material-material">
                  <bind_vertex_input semantic="UVMap" input_semantic="TEXCOORD" input_set="0"/>
                </instance_material>
              </technique_common>
            </bind_material>
          </instance_controller>
        </node>
      </node>
    </visual_scene>
  </library_visual_scenes>
  <scene>
    <instance_visual_scene url="#Scene"/>
  </scene>
</COLLADA>