{
	"asset":{
		"generator":"Khronos glTF Blender I/O v4.0.44",
		"version":"2.0"
	},
	"scene":0,
	"scenes":[
		{
			"name":"Scene",
			"nodes":[
				5
			]
		}
	],
	"nodes":[
		{
			"name":"Bone.003",
			"translation":[
				0,
				20.124370574951172,
				0
			]
		},
		{
			"children":[
				0
			],
			"name":"Bone.002",
			"translation":[
				0,
				24.616588592529297,
				0
			]
		},
		{
			"children":[
				1
			],
			"name":"Bone.001",
			"translation":[
				0,
				1,
				0
			]
		},
		{
			"children":[
				2
			],
			"name":"Bone",
			"rotation":[
				0.7071067690849304,
				0,
				0,
				0.7071067690849304
			]
		},
		{
			"mesh":0,
			"name":"Cube",
			"skin":0
		},
		{
			"children":[
				4,
				3
			],
			"name":"Armature"
		}
	],
	"animations":[
		{
			"channels":[
				{
					"sampler":0,
					"target":{
						"node":3,
						"path":"translation"
					}
				},
				{
					"sampler":1,
					"target":{
						"node":3,
						"path":"rotation"
					}
				},
				{
					"sampler":2,
					"target":{
						"node":3,
						"path":"scale"
					}
				},
				{
					"sampler":3,
					"target":{
						"node":2,
						"path":"translation"
					}
				},
				{
					"sampler":4,
					"target":{
						"node":2,
						"path":"rotation"
					}
				},
				{
					"sampler":5,
					"target":{
						"node":2,
						"path":"scale"
					}
				},
				{
					"sampler":6,
					"target":{
						"node":1,
						"path":"translation"
					}
				},
				{
					"sampler":7,
					"target":{
						"node":1,
						"path":"rotation"
					}
				},
				{
					"sampler":8,
					"target":{
						"node":1,
						"path":"scale"
					}
				},
				{
					"sampler":9,
					"target":{
						"node":0,
						"path":"translation"
					}
				},
				{
					"sampler":10,
					"target":{
						"node":0,
						"path":"rotation"
					}
				},
				{
					"sampler":11,
					"target":{
						"node":0,
						"path":"scale"
					}
				}
			],
			"name":"ArmatureAction.001",
			"samplers":[
				{
					"input":7,
					"interpolation":"STEP",
					"output":8
				},
				{
					"input":7,
					"interpolation":"STEP",
					"output":9
				},
				{
					"input":7,
					"interpolation":"STEP",
					"output":10
				},
				{
					"input":7,
					"interpolation":"STEP",
					"output":11
				},
				{
					"input":7,
					"interpolation":"STEP",
					"output":12
				},
				{
					"input":7,
					"interpolation":"STEP",
					"output":13
				},
				{
					"input":7,
					"interpolation":"STEP",
					"output":14
				},
				{
					"input":15,
					"interpolation":"LINEAR",
					"output":16
				},
				{
					"input":7,
					"interpolation":"STEP",
					"output":17
				},
				{
					"input":7,
					"interpolation":"LINEAR",
					"output":18
				},
				{
					"input":15,
					"interpolation":"LINEAR",
					"output":19
				},
				{
					"input":7,
					"interpolation":"STEP",
					"output":20
				}
			]
		}
	],
	"meshes":[
		{
			"name":"Cube.001",
			"primitives":[
				{
					"attributes":{
						"POSITION":0,
						"NORMAL":1,
						"TEXCOORD_0":2,
						"JOINTS_0":3,
						"WEIGHTS_0":4
					},
					"indices":5
				}
			]
		}
	],
	"skins":[
		{
			"inverseBindMatrices":6,
			"joints":[
				3,
				2,
				1,
				0
			],
			"name":"Armature"
		}
	],
	"accessors":[
		{
			"bufferView":0,
			"componentType":5126,
			"count":40,
			"max":[
				1,
				1,
				70.3427734375
			],
			"min":[
				-1,
				-1,
				0.5292587280273438
			],
			"type":"VEC3"
		},
		{
			"bufferView":1,
			"componentType":5126,
			"count":40,
			"type":"VEC3"
		},
		{
			"bufferView":2,
			"componentType":5126,
			"count":40,
			"type":"VEC2"
		},
		{
			"bufferView":3,
			"componentType":5121,
			"count":40,
			"type":"VEC4"
		},
		{
			"bufferView":4,
			"componentType":5126,
			"count":40,
			"type":"VEC4"
		},
		{
			"bufferView":5,
			"componentType":5123,
			"count":84,
			"type":"SCALAR"
		},
		{
			"bufferView":6,
			"componentType":5126,
			"count":4,
			"type":"MAT4"
		},
		{
			"bufferView":7,
			"componentType":5126,
			"count":2,
			"max":[
				1
			],
			"min":[
				0.041666666666666664
			],
			"type":"SCALAR"
		},
		{
			"bufferView":8,
			"componentType":5126,
			"count":2,
			"type":"VEC3"
		},
		{
			"bufferView":9,
			"componentType":5126,
			"count":2,
			"type":"VEC4"
		},
		{
			"bufferView":10,
			"componentType":5126,
			"count":2,
			"type":"VEC3"
		},
		{
			"bufferView":11,
			"componentType":5126,
			"count":2,
			"type":"VEC3"
		},
		{
			"bufferView":12,
			"componentType":5126,
			"count":2,
			"type":"VEC4"
		},
		{
			"bufferView":13,
			"componentType":5126,
			"count":2,
			"type":"VEC3"
		},
		{
			"bufferView":14,
			"componentType":5126,
			"count":2,
			"type":"VEC3"
		},
		{
			"bufferView":15,
			"componentType":5126,
			"count":24,
			"max":[
				1
			],
			"min":[
				0.041666666666666664
			],
			"type":"SCALAR"
		},
		{
			"bufferView":16,
			"componentType":5126,
			"count":24,
			"type":"VEC4"
		},
		{
			"bufferView":17,
			"componentType":5126,
			"count":2,
			"type":"VEC3"
		},
		{
			"bufferView":18,
			"componentType":5126,
			"count":2,
			"type":"VEC3"
		},
		{
			"bufferView":19,
			"componentType":5126,
			"count":24,
			"type":"VEC4"
		},
		{
			"bufferView":20,
			"componentType":5126,
			"count":2,
			"type":"VEC3"
		}
	],
	"bufferViews":[
		{
			"buffer":0,
			"byteLength":480,
			"byteOffset":0,
			"target":34962
		},
		{
			"buffer":0,
			"byteLength":480,
			"byteOffset":480,
			"target":34962
		},
		{
			"buffer":0,
			"byteLength":320,
			"byteOffset":960,
			"target":34962
		},
		{
			"buffer":0,
			"byteLength":160,
			"byteOffset":1280,
			"target":34962
		},
		{
			"buffer":0,
			"byteLength":640,
			"byteOffset":1440,
			"target":34962
		},
		{
			"buffer":0,
			"byteLength":168,
			"byteOffset":2080,
			"target":34963
		},
		{
			"buffer":0,
			"byteLength":256,
			"byteOffset":2248
		},
		{
			"buffer":0,
			"byteLength":8,
			"byteOffset":2504
		},
		{
			"buffer":0,
			"byteLength":24,
			"byteOffset":2512
		},
		{
			"buffer":0,
			"byteLength":32,
			"byteOffset":2536
		},
		{
			"buffer":0,
			"byteLength":24,
			"byteOffset":2568
		},
		{
			"buffer":0,
			"byteLength":24,
			"byteOffset":2592
		},
		{
			"buffer":0,
			"byteLength":32,
			"byteOffset":2616
		},
		{
			"buffer":0,
			"byteLength":24,
			"byteOffset":2648
		},
		{
			"buffer":0,
			"byteLength":24,
			"byteOffset":2672
		},
		{
			"buffer":0,
			"byteLength":96,
			"byteOffset":2696
		},
		{
			"buffer":0,
			"byteLength":384,
			"byteOffset":2792
		},
		{
			"buffer":0,
			"byteLength":24,
			"byteOffset":3176
		},
		{
			"buffer":0,
			"byteLength":24,
			"byteOffset":3200
		},
		{
			"buffer":0,
			"byteLength":384,
			"byteOffset":3224
		},
		{
			"buffer":0,
			"byteLength":24,
			"byteOffset":3608
		}
	],
	"buffers":[
		{
			"byteLength":3632,
			"uri":"snake_new.bin"
		}
	]
}
